<svg width="24" height="24" viewBox="0 0 24 24" fill="none" xmlns="http://www.w3.org/2000/svg">
<path fill-rule="evenodd" clip-rule="evenodd" d="M2 6.0002C2 4.93928 2.42143 3.92181 3.17157 3.17163C3.92172 2.42145 4.93913 2 6 2H18C19.0609 2 20.0783 2.42145 20.8284 3.17163C21.5786 3.92181 22 4.93928 22 6.0002V18.0008C22 19.0617 21.5786 20.0792 20.8284 20.8294C20.0783 21.5795 19.0609 22.001 18 22.001H6C4.93913 22.001 3.92172 21.5795 3.17157 20.8294C2.42143 20.0792 2 19.0617 2 18.0008V6.0002ZM6 4.0001C5.46957 4.0001 4.96086 4.21082 4.58579 4.58591C4.21071 4.96101 4 5.46974 4 6.0002V18.0008C4 18.5313 4.21071 19.04 4.58579 19.4151C4.96086 19.7902 5.46957 20.0009 6 20.0009H18C18.5304 20.0009 19.0391 19.7902 19.4142 19.4151C19.7893 19.04 20 18.5313 20 18.0008V6.0002C20 5.46974 19.7893 4.96101 19.4142 4.58591C19.0391 4.21082 18.5304 4.0001 18 4.0001H6ZM12 9.00035C11.2044 9.00035 10.4413 9.31643 9.87868 9.87907C9.31607 10.4417 9 11.2048 9 12.0005C9 12.7962 9.31607 13.5593 9.87868 14.1219C10.4413 14.6846 11.2044 15.0006 12 15.0006C12.7956 15.0006 13.5587 14.6846 14.1213 14.1219C14.6839 13.5593 15 12.7962 15 12.0005C15 11.2048 14.6839 10.4417 14.1213 9.87907C13.5587 9.31643 12.7956 9.00035 12 9.00035ZM7 12.0005C7 10.6743 7.52678 9.40251 8.46447 8.46479C9.40215 7.52706 10.6739 7.00025 12 7.00025C13.3261 7.00025 14.5979 7.52706 15.5355 8.46479C16.4732 9.40251 17 10.6743 17 12.0005C17 13.3266 16.4732 14.5985 15.5355 15.5362C14.5979 16.4739 13.3261 17.0007 12 17.0007C10.6739 17.0007 9.40215 16.4739 8.46447 15.5362C7.52678 14.5985 7 13.3266 7 12.0005ZM17.5 8.0003C17.8978 8.0003 18.2794 7.84225 18.5607 7.56094C18.842 7.27962 19 6.89807 19 6.50022C19 6.10238 18.842 5.72083 18.5607 5.43951C18.2794 5.15819 17.8978 5.00015 17.5 5.00015C17.1022 5.00015 16.7206 5.15819 16.4393 5.43951C16.158 5.72083 16 6.10238 16 6.50022C16 6.89807 16.158 7.27962 16.4393 7.56094C16.7206 7.84225 17.1022 8.0003 17.5 8.0003Z" fill="#A99A8C"/>
</svg>
